<svg fill="none" height="40" viewBox="0 0 188 40" width="188" xmlns="http://www.w3.org/2000/svg"><g fill="#fff"><path d="m55.8069 3.97674c0 2.17773-1.8748 3.97673-3.9768 3.97673-2.1777 0-3.9767-1.799-3.9767-3.97673 0-2.17774 1.799-3.97674 3.9767-3.97674 2.102 0 3.9768 1.799 3.9768 3.97674z"/><path d="m69.2141 3.97674c0 2.17773-1.8747 3.97673-3.9767 3.97673-2.1777 0-3.9767-1.799-3.9767-3.97673 0-2.17774 1.799-3.97674 3.9767-3.97674 2.102 0 3.9767 1.799 3.9767 3.97674z"/><path d="m0 38.0252h4.45016v-21.285h-4.45016v-.8901h4.45016c2.70796 0 3.71162 0 4.73421-1.2498v5.5296h.11362c1.51491-2.7648 3.88201-5.5296 8.10501-5.5296 3.598 0 7.2149 1.0037 7.7262 6.0219h.1136c1.1362-3.2192 3.9389-6.0787 8.1618-6.0219 5.7378.0568 7.6694 3.3329 7.6694 6.8741v16.5508h4.4502v.9089h-13.6346v-.9089h4.4502v-17.5734c0-4.0525-1.799-4.9615-3.9389-4.9615-3.276 0-6.1355 3.5412-7.2717 7.499v15.0359h4.2797v.9089h-13.4641v-.9089h4.4502v-18.6528c0-2.8216-1.4014-3.8821-3.6548-3.8821-3.3708 0-5.9083 2.6512-7.55583 6.6469v15.888h4.27973v.9089h-13.4641z"/><path d="m49.463 16.7402h-4.507v-.8901h4.507c1.799 0 3.598-.1136 4.7342-1.2498v23.4249h4.507v.9089h-13.7482v-.9089h4.507z"/><path d="m62.8703 16.7402h-4.507v-.8901h4.507c1.799 0 3.598-.1136 4.7342-1.2498v23.4249h4.507v.9089h-13.7482v-.9089h4.507z"/><path d="m75.9935 16.7402h-4.4501v-.8901h4.4501c2.708 0 3.7116 0 4.7342-1.2498v5.7379h.1136c1.4582-2.708 4.2798-5.7379 8.3891-5.7379 6.0219 0 7.7073 3.0488 7.7073 6.3628v17.0621h4.4503v.9089h-13.6347v-.9089h4.4501v-18.4256c0-3.1056-1.5149-4.1093-3.3328-4.1093-4.7342 0-7.1582 4.7342-8.1618 6.6469v15.888h4.2797v.9089h-13.4641v-.9089h4.4502v-21.285z"/><path d="m128.051 14.6003c7.272 0 11.949 6.0219 11.949 12.4983s-4.677 12.4983-11.949 12.4983-11.949-6.0219-11.949-12.4983 4.677-12.4983 11.949-12.4983zm6.533 10.3016c0-4.9046-.227-9.4116-6.533-9.4116s-6.533 4.507-6.533 9.4116v4.3934c0 4.9046.227 9.4116 6.533 9.4116s6.533-4.507 6.533-9.4116z"/><path d="m112.504 38.7069c-1.761 0-3.257-.9658-3.314-3.5223v-18.4444h7.764v-.8901h-7.764v-7.89663h-.682c-.966 5.52953-3.106 7.99133-8.9571 7.89663v.8901h4.9051v16.5129c0 3.3329 1.685 6.3628 7.726 6.3628 3.901 0 6.628-2.7269 8.143-5.3213v-1.5718c-1.193 2.1778-3.579 5.9841-7.821 5.9841z"/></g><rect height="29.6" rx="8.4" stroke="#fff" stroke-width="2.4" width="29.6" x="157.2" y="9.2"/><path d="m169.196 29.062c.509 0 .962-.0858 1.361-.2575.405-.1717.745-.4108 1.021-.7173.282-.3065.496-.6744.643-1.1035.148-.4353.221-.9166.221-1.4438v-7.9823h2.143v7.9823c0 .7786-.126 1.4989-.377 2.1611-.245.6621-.601 1.2353-1.067 1.7196-.466.4782-1.033.8553-1.701 1.1312-.662.2697-1.41.4046-2.244.4046s-1.585-.1349-2.253-.4046c-.662-.2759-1.226-.653-1.692-1.1312-.466-.4843-.825-1.0575-1.076-1.7196-.245-.6622-.368-1.3825-.368-2.1611v-7.9823h2.152v7.9731c0 .5272.073 1.0085.221 1.4438.147.4291.358.8.634 1.1127.276.3065.613.5456 1.012.7173.404.1717.861.2575 1.37.2575zm10.534 1.738h-2.161v-13.2424h2.161z" fill="#fff"/></svg>